<svg xmlns="http://www.w3.org/2000/svg" xmlns:xlink="http://www.w3.org/1999/xlink" viewBox="0 0 1386.14 484.85"><defs><style>.cls-1{fill:url(#New_Gradient_Swatch_5);}.cls-2{fill:#fff;}.cls-3{fill:#808285;}.cls-4{fill:url(#New_Gradient_Swatch_4);}.cls-5{fill:url(#New_Gradient_Swatch_4-2);}.cls-6{fill:url(#New_Gradient_Swatch_4-3);}.cls-7{fill:url(#New_Gradient_Swatch_4-4);}.cls-8{fill:url(#New_Gradient_Swatch_4-5);}.cls-9{fill:url(#New_Gradient_Swatch_4-6);}.cls-10{fill:url(#New_Gradient_Swatch_4-7);}</style><linearGradient id="New_Gradient_Swatch_5" x1="693.07" y1="383.85" x2="693.07" y2="181.74" gradientUnits="userSpaceOnUse"><stop offset="0"/><stop offset="1" stop-color="#ac1f2d"/></linearGradient><linearGradient id="New_Gradient_Swatch_4" x1="482.75" y1="181.23" x2="511.75" y2="333.23" gradientUnits="userSpaceOnUse"><stop offset="0" stop-color="#d1d3d4"/><stop offset="1" stop-color="#fff"/></linearGradient><linearGradient id="New_Gradient_Swatch_4-2" x1="1055.71" y1="71.91" x2="1084.71" y2="223.91" xlink:href="#New_Gradient_Swatch_4"/><linearGradient id="New_Gradient_Swatch_4-3" x1="228.63" y1="229.71" x2="257.63" y2="381.71" xlink:href="#New_Gradient_Swatch_4"/><linearGradient id="New_Gradient_Swatch_4-4" x1="712" y1="137.49" x2="741" y2="289.49" xlink:href="#New_Gradient_Swatch_4"/><linearGradient id="New_Gradient_Swatch_4-5" x1="1097.8" y1="41.65" x2="1097.8" y2="331.15" xlink:href="#New_Gradient_Swatch_4"/><linearGradient id="New_Gradient_Swatch_4-6" x1="240.22" y1="41.65" x2="240.22" y2="331.15" xlink:href="#New_Gradient_Swatch_4"/><linearGradient id="New_Gradient_Swatch_4-7" x1="654.41" y1="41.65" x2="654.41" y2="331.15" xlink:href="#New_Gradient_Swatch_4"/></defs><g id="Layer_2" data-name="Layer 2"><g id="Layer_1-2" data-name="Layer 1"><path class="cls-1" d="M1386.14,307.2l-97.85-63,31.37-131c6.65-27.82,1-55.75-15.48-76.65s-42.27-32.84-70.81-32.84h-228.9c-30.71,0-60.8,13.66-83,35.2C903.09,14.18,871.34,0,834.32,0a159.9,159.9,0,0,0-78.73,21.32C737.26,7.75,712.69,0,685,0a158.62,158.62,0,0,0-33.88,3.72h-221l-1.66,6.81a95.3,95.3,0,0,0-37.05-7.35H67.76l-39.18,168H34a88.44,88.44,0,0,0-11.35,23.87l-.32,1L2.73,278.05c-6.65,27.82-1,55.76,15.47,76.66S60.48,387.55,89,387.55H265.62l144.94,0v-.05h306.3l5.4-22.51a81.41,81.41,0,0,0,50.35,22.42l1.36.09H894.81l1.37-5.8A95.62,95.62,0,0,0,931,388.08h214.76l-14.89,62.26Z"/><path class="cls-2" d="M1311.34,304.91l-91.88-59.18-5.51,23H1028.64c-9.09,0-14.79-7.25-12.67-16.1l4.58-19.27H1251.2l30.94-129.18c8.15-34.06-13.79-61.94-48.77-61.94h-228.9c-35,0-70.25,27.88-78.4,61.94L882.2,287.57C874.05,321.63,896,349.5,931,349.5h263.67l-5.76,24.07Zm-271-155.63c2.11-8.85,11.29-16.1,20.38-16.1h83.87c9.09,0,14.8,7.25,12.68,16.1l-4.19,17.51H1036.19Z"/><path class="cls-2" d="M391.42,41.76h-293L77.19,132.65H295.87c9.09,0,14.79,7.24,12.67,16.1l-4.19,17.5H271a16.69,16.69,0,0,1-3.69.4H112.09c-22.86,0-45.91,17.57-52.49,39.52L40.25,287C32.1,321.1,54,349,89,349h176.6l114.66,0L440.19,103.7C448.34,69.63,426.39,41.76,391.42,41.76ZM284,252.14c-2.12,8.86-11.29,16.1-20.38,16.1H182.35c-9.09,0-14.79-7.24-12.67-16.1l5.15-19.26H289.18Z"/><path class="cls-2" d="M459.79,149.28l-4.19,17.51h-.1L411.26,348.88H531.52l52.54-215.7h19.16c9,0,14.59,7.25,12.5,16.1l-4.14,17.51h-.09L567.87,348.88H686.46l51.81-215.7h17.36c8.78,0,14.29,7.25,12.25,16.1l-4,17.51h-.1L738.33,275l-.14.5-2.89,12.08c-7.44,31.13,12.69,59.38,40,61.31h88.92l19-80.72h-10.7c-9.09,0-14.8-7.24-12.68-16.1l5.73-23.95h0l27.18-115.46,3.7-12.13c10.4-34.07-17.59-61.94-62.19-61.94-32.82,0-65.84,15.1-85.14,36.65C742.89,53.68,718.54,38.58,685,38.58S617.65,53.66,597.9,75.19l8.42-32.9H460.43L438.3,133.18h8.81C456.2,133.18,461.9,140.43,459.79,149.28Z"/><path class="cls-3" d="M68.2,408.75H84.81l9.54,61.67H76.5L75,459.48H51.4l-7.34,10.94H25.6Zm5.42,37.53L71.43,428.7,60,446.28Z"/><path class="cls-3" d="M116.13,409.19h17.06l-12.42,46.36H150l-4,14.87H99.69Z"/><path class="cls-3" d="M169.44,409.19H186.5l-12.42,46.36h29.21l-4,14.87H153Z"/><path class="cls-3" d="M211.16,435.78h28.69L236,450.39H207.23Z"/><path class="cls-3" d="M258.81,409.19H276l8.14,23.71,20.81-23.71H324l-16.44,61.23H290.47l9.36-35.16-21.95,24h-.35l-9-23.79-9.36,35H242.37Z"/><path class="cls-3" d="M336.55,409.19h49.07l-3.94,14.43H349.5L347,432.9h29.21l-3.58,13.38H343.38l-2.63,9.7h32.71l-3.85,14.44h-49.5Z"/><path class="cls-3" d="M396.82,409.19h19.76c11.9,0,19.33,3.24,24,7.87s6.64,10.5,6.64,17.93a33.58,33.58,0,0,1-10.05,24.14c-7.35,7.35-17.93,11.29-32.1,11.29H380.37Zm10.23,46.18c7.08,0,13.47-2.18,17.49-6.21a18.34,18.34,0,0,0,5.25-12.77c0-3.76-1.14-6.47-3.06-8.39-2.28-2.36-6-3.76-12-3.76h-4.9l-8.4,31.13Z"/><path class="cls-3" d="M490.21,409.19h49.07l-3.94,14.43H503.16l-2.54,9.28h29.21l-3.58,13.38H497l-2.62,9.7h32.71l-3.85,14.44h-49.5Z"/><path class="cls-3" d="M558.19,438.41l-12.68-29.22h18.63l6.73,17.23L586,409.19h20.47l-28.34,30.44,13.47,30.79H572.88l-7.34-18.9-16.62,18.9H528.36Z"/><path class="cls-3" d="M613.43,409.19h20c10,0,16.53,2,21,6.47a16.94,16.94,0,0,1,4.81,12.51c0,15.22-12.33,24.67-30.43,24.67H618.77L614,470.42H597Zm15.22,30.44c8.4,0,13.21-3.76,13.21-9.53a6,6,0,0,0-1.75-4.29c-1.66-1.66-4.11-2.36-7.26-2.36h-6.3l-4.28,16.18Z"/><path class="cls-3" d="M673.64,409.19h23.09c10.24,0,17,2.28,21.08,6.39,3.24,3.23,4.72,7.61,4.72,12.5,0,10.24-5.86,18.28-18.36,21.69l9.44,20.65H694.89l-8.13-18.55h-7.52l-5,18.55h-17Zm18.81,29.39c7.61,0,12.59-3.24,12.59-8.48a5.72,5.72,0,0,0-1.57-4.11c-1.4-1.4-3.94-2.1-7.52-2.1h-9.19l-4,14.69Z"/><path class="cls-3" d="M737.87,409.19h49.07L783,423.62H750.82l-2.54,9.28H777.5l-3.59,13.38H744.7l-2.63,9.7h32.71l-3.84,14.44H721.43Z"/><path class="cls-3" d="M780.39,460.27,791.32,449c5.95,5.51,12.16,8.31,18.9,8.31,4,0,6.9-1.75,6.9-4.55,0-2.36-1.66-3.59-10.23-6.91C797.18,442.17,791,438,791,429c0-12.16,11-20.82,26-20.82,10.76,0,19.24,3.5,25.1,9.1L831.56,429c-4.64-4-10-6.74-16.18-6.74-4.11,0-6.65,1.93-6.65,4.38s1.84,3.32,10.23,6.65c9.45,3.58,15.92,7.87,15.92,17.05,0,12.59-10.85,21.17-26.06,21.17C796.83,471.47,787,467.36,780.39,460.27Z"/><path class="cls-3" d="M838,460.27,848.9,449c6,5.51,12.16,8.31,18.89,8.31,4,0,6.91-1.75,6.91-4.55,0-2.36-1.66-3.59-10.23-6.91-9.71-3.67-15.92-7.87-15.92-16.88,0-12.16,11-20.82,26-20.82,10.75,0,19.24,3.5,25.1,9.1L889.13,429c-4.63-4-10-6.74-16.18-6.74-4.11,0-6.64,1.93-6.64,4.38s1.83,3.32,10.23,6.65c9.44,3.58,15.92,7.87,15.92,17.05,0,12.59-10.85,21.17-26.07,21.17C854.41,471.47,844.53,467.36,838,460.27Z"/><path class="cls-3" d="M893.07,478.46c6.91-.7,10.41-3.5,11.46-8.22h-6.74l4.64-17.05h17.23l-3.94,14.69c-3,11.19-8.92,16.44-22,17Z"/><path class="cls-3" d="M968.63,409.19h17l-16.45,61.23h-17Z"/><path class="cls-3" d="M993.53,423.1h16.62l-1.49,5.42c3.23-3.41,8-6.47,13.55-6.47,8.58,0,13.74,5.42,13.74,14.17a35.25,35.25,0,0,1-1.4,8.48l-6.83,25.72h-16.61l6.64-24.75a15.66,15.66,0,0,0,.53-3.85c0-3.15-1.84-5-5.25-5-4.63,0-7.35,3.15-8.83,8.57l-6.74,25H980.85Z"/><path class="cls-3" d="M1041.06,450.82a28.49,28.49,0,0,1,28.43-28.68c11,0,17.58,5.68,20.12,12.94l-13,6.74c-1.57-3.68-3.85-5.95-8.13-5.95-6.3,0-11.37,6.91-11.37,14.08,0,4.81,3.15,7.87,7.26,7.87,3.5,0,6-1.49,8.92-4.37l10.15,8.83c-4.82,5.6-10.76,9.27-20.21,9.27C1050.42,471.55,1041.06,463.59,1041.06,450.82Z"/><path class="cls-3" d="M1092.83,453.36h17.31l-4.63,17.06h-17.23Z"/><path class="cls-4" d="M531.52,348.88l48.61-199.57q-63.58,9.16-125.21,19.84L411.26,348.88Z"/><path class="cls-5" d="M1020.55,233.41H1251.2L1282,104.87c-112-2.91-232.22-.38-358,8.06L882.2,287.57C874.05,321.63,896,349.5,931,349.5h263.66l-5.76,24.07,122.47-68.66-91.88-59.18-5.51,23H1028.64c-9.09,0-14.79-7.25-12.67-16.1Zm19.83-84.13c2.11-8.85,11.29-16.1,20.38-16.1h83.87c9.09,0,14.8,7.25,12.68,16.1l-4.19,17.51H1036.19Z"/><path class="cls-6" d="M380.27,348.94l42.54-174.11C288.13,199.19,161.53,228.7,46.25,262l-6,25.08C32.1,321.1,54,349,89,349h176.6Zm-197.91-80.7c-9.1,0-14.8-7.24-12.68-16.1l5.15-19.26H289.18L284,252.14c-2.12,8.86-11.29,16.1-20.38,16.1Z"/><path class="cls-7" d="M864.26,348.88l19-80.72h-10.7c-9.09,0-14.8-7.24-12.68-16.1l5.73-23.95h0l26.58-112.94c-71,5.29-143.74,12.43-217.64,21.53q-29.43,3.62-58.49,7.58a15.4,15.4,0,0,1-.36,5l-4.14,17.51h-.09L567.87,348.88H686.46l51.81-215.7h17.36c8.78,0,14.29,7.25,12.25,16.1l-4,17.51h-.1L738.33,275l-.14.5-2.89,12.08c-7.44,31.13,12.69,59.38,40,61.31Z"/><path class="cls-8" d="M1182.83,381.57l6.71-28.05H931c-18.16,0-33.67-7-43.69-19.68s-13.23-29.49-9-47.21L922.16,103.3c8.58-35.86,45.5-65,82.31-65h228.9c18.15,0,33.67,7,43.68,19.69s13.24,29.49,9,47.21l-31.68,132.26H1023.72l-3.84,16.18a8.47,8.47,0,0,0,8.76,11.15h182.14l6.09-25.47,102.26,65.86ZM1004.47,46.31c-33.31,0-66.73,26.4-74.49,58.86L886.11,288.5c-3.66,15.28-1,29.61,7.49,40.36s21.73,16.63,37.37,16.63h268.75l-4.8,20.09,108.63-60.91-81.5-52.49-4.93,20.62H1028.64a16.48,16.48,0,0,1-16.58-21.06l5.31-22.35H1248l30.2-126.09c3.65-15.28,1-29.61-7.49-40.36S1249,46.31,1233.37,46.31Zm151.82,124.5h-125.2l5.38-22.46c2.53-10.58,13.42-19.19,24.29-19.19h83.87a16.49,16.49,0,0,1,16.59,21.06Zm-115-8H1150l3.45-14.42a8.48,8.48,0,0,0-8.77-11.15h-83.87c-7.24,0-14.79,6-16.48,13Z"/><path class="cls-9" d="M265.61,353H89c-18.15,0-33.66-7-43.68-19.69s-13.23-29.49-9-47.2L55.75,205c7.13-23.77,31.87-42.38,56.34-42.38H267.31a12.63,12.63,0,0,0,2.82-.31l.43-.1h30.62l3.46-14.42a8.48,8.48,0,0,0-8.77-11.15H72.13L95.19,37.74H391.42c18.15,0,33.67,7,43.68,19.69s13.23,29.48,9,47.2L383.42,353ZM63.48,207.22,44.16,288c-3.66,15.27-1,29.6,7.48,40.35S73.38,345,89,345h176.6l111.5,0,59.17-242.18c3.65-15.25,1-29.58-7.49-40.33s-21.73-16.63-37.37-16.63H101.57L82.25,128.63H295.87a16.47,16.47,0,0,1,16.58,21.05l-4.93,20.59H271.41a20.73,20.73,0,0,1-4.1.4H112.09C91,170.67,69.68,186.72,63.48,207.22Zm200.18,65h-81.3a16.49,16.49,0,0,1-16.59-21l6-22.35H294.41l-6.48,24.28C285.38,263.69,274.5,272.26,263.66,272.26Zm-85.75-35.37-4.35,16.29a8.49,8.49,0,0,0,8.8,11.05h81.3c7.24,0,14.78-6,16.47-13l0-.1,3.8-14.22Z"/><path class="cls-10" d="M867.44,352.9H775.06a47.59,47.59,0,0,1-34.89-19.72c-9.54-13-12.74-30-8.77-46.54l3.06-12.7,26.09-111.16h.08L764,148.38a9.45,9.45,0,0,0-1.44-8.16,8.54,8.54,0,0,0-6.89-3H741.44L689.63,352.9H562.77l45.55-190.13h.08l3.41-14.41a9.26,9.26,0,0,0-1.42-8,8.86,8.86,0,0,0-7.17-3.12h-16L534.68,352.9H406.15l46.19-190.13h.09l3.45-14.42a8.48,8.48,0,0,0-8.77-11.15H433.18l24.1-98.93H611.37l-1.15,5-5,19.5C626.51,45.35,656.38,34.56,685,34.56c31.26,0,56.21,12.87,65.72,33.3,21-20.39,53-33.3,83.63-33.3,26,0,47.68,9.12,59.46,25,8.87,12,11.2,26.93,6.57,42.1l-3.66,12L868.81,232.13h0l-5,20.87a8.48,8.48,0,0,0,8.77,11.14h15.77Zm-92-8h85.59l17.1-72.69h-5.62A16.49,16.49,0,0,1,856,251.13l6.48-27L889,111.48l3.71-12.14c3.92-12.85,2.07-24.94-5.35-35-10.25-13.85-29.56-21.78-53-21.78-30.69,0-62.93,13.86-82.15,35.31l-4.82,5.39-2-6.94c-6-20.51-29.68-33.76-60.35-33.76-31.41,0-64.43,13.86-84.11,35.31L590,89.71l11.11-43.4H463.59l-20.18,82.85h3.7a16.48,16.48,0,0,1,16.58,21.06h0l-4.92,20.59h-.11L416.37,344.87h112L580.9,129.16h22.32a16.73,16.73,0,0,1,13.48,6.17,17.36,17.36,0,0,1,2.93,14.87l-4.86,20.61h-.12L573,344.87H683.29L735.1,129.16h20.53a16.39,16.39,0,0,1,13.18,6.06,17.51,17.51,0,0,1,3,15L767,170.81h-.1L742.07,276.56l-2.86,11.94c-3.41,14.27-.7,28.82,7.44,39.92A39.61,39.61,0,0,0,775.49,344.87Z"/></g></g></svg>