<?xml version="1.0" encoding="UTF-8"?>
<svg width="466px" height="100px" viewBox="0 0 466 100" version="1.1" xmlns="http://www.w3.org/2000/svg" xmlns:xlink="http://www.w3.org/1999/xlink">
    <title>Artboard</title>
    <g id="Artboard" stroke="none" stroke-width="1" fill="none" fill-rule="evenodd">
        <g id="beeline-logo" fill="#77B800" fill-rule="nonzero">
            <path d="M44.825,99.892 C31.9604,99.892 23.5181,92.8574 18.0908,85.0188 L18.0908,98.2841 L7.83935,98.2841 L7.83935,7.83861 L0,7.83861 L0,0 L7.83935,0 L18.0908,0 L18.0908,42.6099 C23.7191,34.1683 31.9604,27.1336 44.825,27.1336 C61.5087,27.1336 77.9915,40.399 77.9915,63.3118 C77.9915,86.4257 61.7098,99.892 44.825,99.892 Z M43.0159,36.5802 C30.1513,36.5802 17.8898,47.4336 17.8898,63.5128 C17.8898,79.793 30.1513,90.6465 43.0159,90.6465 C56.4835,90.6465 67.539,80.597 67.539,63.7138 C67.338,47.0317 56.0815,36.5802 43.0159,36.5802 Z" id="Shape"></path>
            <path d="M120.605,27.3346 C101.309,27.3346 87.2379,43.4138 87.2379,63.5128 C87.2379,85.2198 102.716,99.691 121.811,99.691 C134.877,99.691 143.52,94.4653 150.355,86.6267 L143.922,80.798 C138.294,86.8277 131.661,90.6465 122.012,90.6465 C109.751,90.6465 99.0974,82.2049 97.4894,67.1307 L152.566,67.1307 C152.767,65.9247 152.767,64.9198 152.767,63.9148 C152.968,43.8158 141.108,27.3346 120.605,27.3346 Z M97.6904,59.694 C99.0974,46.2277 108.143,35.9772 120.203,35.9772 C134.073,35.9772 141.309,47.0317 142.314,59.694 L97.6904,59.694 Z" id="Shape"></path>
            <path d="M195.984,27.3346 C176.888,27.3346 162.616,43.4138 162.616,63.5128 C162.616,85.2198 178.094,99.691 197.19,99.691 C210.255,99.691 218.698,94.4653 225.733,86.6267 L219.301,80.798 C213.673,86.8277 207.039,90.6465 197.391,90.6465 C185.129,90.6465 174.476,82.2049 172.868,67.1307 L227.944,67.1307 C228.145,65.9247 228.145,64.9198 228.145,63.9148 C228.346,43.8158 216.487,27.3346 195.984,27.3346 Z M173.27,59.694 C174.677,46.2277 183.722,35.9772 195.783,35.9772 C209.652,35.9772 216.889,47.0317 217.894,59.694 L173.27,59.694 Z" id="Shape"></path>
            <polygon id="Path" points="242.618 0.200996 234.98 0.200996 234.98 8.03961 242.618 8.03961 242.618 98.2841 253.07 98.2841 253.07 0.200996"></polygon>
            <path d="M335.283,27.3346 C323.423,27.3346 316.187,33.3643 311.564,40.801 L311.564,28.7416 L311.363,28.7416 L301.111,28.7416 L293.272,28.7416 L293.272,36.5802 L301.111,36.5802 L301.111,98.2843 L311.363,98.2843 L311.363,58.4882 C311.363,45.4238 320.207,36.7812 332.268,36.7812 C344.529,36.7812 351.565,44.8208 351.565,57.6842 L351.565,98.2843 L361.816,98.2843 L361.816,55.2723 C361.816,38.5901 352.168,27.3346 335.283,27.3346 Z" id="Path"></path>
            <path d="M437.195,64.1158 C437.195,43.6148 425.335,27.3346 404.832,27.3346 C385.535,27.3346 371.465,43.4138 371.465,63.5128 C371.465,85.2198 387.143,99.691 406.038,99.691 C419.104,99.691 427.546,94.4653 434.581,86.6267 L428.149,80.798 C422.521,86.8277 415.888,90.6465 406.239,90.6465 C393.978,90.6465 383.324,82.2049 381.716,67.1307 L436.793,67.1307 C437.195,66.1257 437.195,65.1207 437.195,64.1158 Z M381.917,59.694 C383.324,46.2277 392.37,35.9772 404.43,35.9772 C418.3,35.9772 425.536,47.0317 426.541,59.694 L381.917,59.694 Z M454.682,49.2425 C448.652,49.2425 443.828,44.4188 443.828,38.3891 C443.828,32.3594 448.652,27.5356 454.682,27.5356 C460.713,27.5356 465.537,32.3594 465.537,38.3891 C465.537,44.2178 460.713,49.2425 454.682,49.2425 Z M454.682,28.7416 C449.255,28.7416 445.034,33.1633 445.034,38.3891 C445.034,43.6148 449.255,48.0366 454.682,48.0366 C460.11,48.0366 464.331,43.6148 464.331,38.3891 C464.331,32.9623 460.311,28.7416 454.682,28.7416 Z M457.497,39.595 L460.311,43.8158 L457.296,43.8158 L454.883,39.997 L452.873,39.997 L452.873,43.8158 L450.26,43.8158 L450.26,32.1584 L455.486,32.1584 C458.301,32.1584 460.11,33.5653 460.11,35.9772 C459.909,37.9871 458.904,39.193 457.497,39.595 Z M455.285,34.5703 L452.873,34.5703 L452.873,37.9871 L455.486,37.9871 C456.692,37.9871 457.497,37.3841 457.497,36.3792 C457.296,34.9722 456.491,34.5703 455.285,34.5703 Z" id="Shape"></path>
            <path d="M275.985,14.4713 C279.649,14.4713 282.619,11.5917 282.619,8.0396 C282.619,4.48749 279.649,1.60793 275.985,1.60793 C272.322,1.60793 269.352,4.48749 269.352,8.0396 C269.352,11.5917 272.322,14.4713 275.985,14.4713 Z" id="Path"></path>
            <polygon id="Path" points="263.925 28.9426 263.925 36.5802 271.764 36.5802 271.764 98.2841 282.016 98.2841 282.016 36.5802 282.016 28.9426 271.764 28.9426"></polygon>
        </g>
    </g>
</svg>