<?xml version="1.0" encoding="UTF-8"?> <!-- Generator: Adobe Illustrator 23.1.0, SVG Export Plug-In . SVG Version: 6.00 Build 0) --> <svg xmlns="http://www.w3.org/2000/svg" xmlns:xlink="http://www.w3.org/1999/xlink" id="Layer_1" x="0px" y="0px" viewBox="0 0 298 67" style="enable-background:new 0 0 298 67;" xml:space="preserve"> <style type="text/css"> .st0{fill-rule:evenodd;clip-rule:evenodd;fill:#00539B;} .st1{fill-rule:evenodd;clip-rule:evenodd;fill:#FBB040;} </style> <path class="st0" d="M29.1,5.6c-6,4.5-10.7,10.5-9.3,17.8c2.9,15.9,16.8,14.3,13.2,26c-1.4,4.5-6.2,6.7-11.6,7.6 C12.1,52.5,5.8,43.3,5.8,32.6C5.8,19.1,15.8,8,29.1,5.6L29.1,5.6z"></path> <path class="st0" d="M38.4,5.4c-9.3,5.9-11.3,11-10,17.8c1.4,7.7,14.3,9.8,13.9,23.8c-0.2,5.3-4.9,9.8-10.5,12.9 c0,0-0.9-0.1-1.4-0.2c-0.8-0.1-1.9-0.3-1.9-0.3c3.7-1.4,10.3-5.6,11.3-10.2c3.1-14.3-11.9-16.7-13.3-26.2c-1.3-9,2.8-12.7,8.9-17.6 c0,0,0.9,0,1.5,0C37.5,5.3,38.4,5.4,38.4,5.4L38.4,5.4z"></path> <path class="st1" d="M39.6,59.6c4.5-3,8.5-7,9.4-12.1c2.4-14.5-13-20-14.6-26.9C33,14.9,38.9,9,44.5,6.9c10.7,4,18.3,14,18.3,25.6 C62.8,46,52.8,57.2,39.6,59.6L39.6,59.6z"></path> <g> <path class="st0" d="M283.9,24.5c-3.5,0-6.5,1.2-9.1,3.5c0.8-2.8,4.3-15.1,4.3-15.1h-0.7h-11l-11.9,41.4h11.9l4.3-15 c1.5-5.2,3.4-7.4,6.4-7.4c1.4,0,2.2,0.9,2.2,1.8c0,0.7-0.1,1.8-0.4,3c0,0-5.1,17.7-5.1,17.7h11.9l5.3-18.4c0.3-1.1,0.5-2.4,0.5-3.7 C292.6,27.6,289.2,24.5,283.9,24.5z"></path> <path class="st0" d="M253.5,47.1c-2.3,0-2.6-0.9-2.6-1.7c0-0.3,0.1-1.2,0.5-2.7c0,0,2.3-8.3,2.8-10.1c0.7,0,6.5,0,6.5,0l2.1-7.5 c0,0-5.4,0-6.5,0c0.3-1.1,2.4-8.5,2.4-8.5L258,17l-12,4.2c0,0-1,3.4-1.2,4c-0.7,0-5.5,0-5.5,0l-2,6.7c-0.4-3.6-3.1-7.3-12.2-7.3 c-8.7,0-14.1,3.3-15,9.3l-0.1,0.6h10.6l0.1-0.4c0.5-2.4,1.6-3.5,3.6-3.5c1.7,0,2.7,0.8,2.7,2.2c0,0.7-0.3,2-0.6,3.1 c-0.3,0-4.4-0.1-4.4-0.1c-10.9,0-17.2,4.2-17.2,11.5c0,4.9,3.3,7.9,8.7,7.9c3.8,0,6.9-1.2,9.4-3.6c-0.2,1.1-0.6,2.9-0.6,2.9h10.8 l0-0.5c0.2-2.6,0.5-4.7,0.9-6.3c0,0,2.7-9.8,2.7-9.8c0.5-1.9,0.8-3.4,0.8-4.7c0-0.1,0-0.3,0-0.4c1,0,4.4,0,5.2,0 c-0.3,1.1-2.7,9.4-2.7,9.4c-0.7,2.5-1.1,4.4-1.1,5.8c0,4.6,3.4,6.9,10.5,6.9c1.6,0,3.2-0.1,4.9-0.5l0.3,0l2.2-7.4L253.5,47.1z M225,41.2c-1.3,4.8-3.1,7-5.9,7c-1.8,0-2.9-1.1-2.9-2.7c0-2.8,2.8-4.3,8.4-4.3C224.5,41.2,224.7,41.2,225,41.2z"></path> <path class="st0" d="M142.2,25.2h-10.8l-4.3,15c-1.5,5.2-3.4,7.4-6.4,7.4c-1.4,0-2.3-0.9-2.3-1.8c0-0.9,0.2-2,0.5-3.1 c0,0,5.1-17.6,5.1-17.6h-11.9l-5.3,18.4c-0.3,1.1-0.5,2.4-0.5,3.7c0,4.7,3.4,7.8,8.6,7.8c3.6,0,6.5-1.2,9.4-3.8 c-0.3,1.2-0.9,3.1-0.9,3.1h11.5l0.1-0.4c0.5-2.6,1-4.7,1.5-6.2l6.4-22.6L142.2,25.2L142.2,25.2z"></path> <path class="st0" d="M100.3,31.9l-7.9-3.7c-2.5-1.2-3.9-2.2-3.9-4.1c0-2.3,2-3.7,5.1-3.7c2.6,0,4.1,1.3,4.1,3.7l-0.1,1.8l0.5,0 h11.4l0.3-3.1c0-6.4-6.2-10.4-16.1-10.4c-10.8,0-18.1,5.5-18.1,13.6c0,4.6,1.9,7.2,6.9,9.6l6.7,3.2c2.6,1.3,4.2,2,4.2,4.3 c0,1.8-1.9,3.6-5.6,3.6c-3.4,0-5.3-1.5-5.3-4.1l0.1-1.1l0.1-1h-0.5H70.5l-0.1,2l-0.1,0.8c0,8,5.3,11.9,16.1,11.9 c12.2,0,20.1-5.5,20.1-14.1C106.5,36.8,104.4,33.8,100.3,31.9z"></path> <path class="st0" d="M179.4,12.9h-11.3c0,0-4,14.2-4.5,16c-2-2.9-4.8-4.4-8.7-4.4c-4,0-7.5,1.6-10.2,4.6c-3.3,3.7-5.5,9.6-5.5,15 c0,6.8,3.7,10.9,9.9,10.9c3.3,0,6.1-1.1,8.6-3.2c-0.3,1-0.8,2.5-0.8,2.5h11.5l1.6-6.5l0.1-0.5l9.9-34.5L179.4,12.9L179.4,12.9z M151.1,43.3c0-6,3.3-11.6,6.8-11.6c2.8,0,3.2,2.5,3.2,4c0,6.1-3.3,11.9-6.8,11.9C151.6,47.5,151.1,45.2,151.1,43.3z"></path> <path class="st0" d="M212.9,12.9h-11.3c0,0-4,14.2-4.5,16c-2-2.9-4.8-4.4-8.7-4.4c-4,0-7.5,1.6-10.2,4.6c-3.3,3.7-5.5,9.6-5.5,15 c0,6.8,3.7,10.9,9.9,10.9c3.3,0,6.1-1.1,8.6-3.2c-0.3,1-0.8,2.5-0.8,2.5H202l1.6-6.5l0.1-0.5l9.9-34.5L212.9,12.9L212.9,12.9z M184.6,43.3c0-6,3.3-11.6,6.8-11.6c2.8,0,3.2,2.5,3.2,4c0,6.1-3.3,11.9-6.8,11.9C185.2,47.5,184.6,45.2,184.6,43.3z"></path> </g> <path class="st0" d="M60.2,50c-0.7,0-1.3,0.3-1.8,0.7c-0.5,0.5-0.8,1.2-0.8,1.9s0.3,1.3,0.8,1.8c0.5,0.5,1.1,0.8,1.8,0.8 c0.7,0,1.3-0.3,1.8-0.8c0.5-0.5,0.8-1.1,0.8-1.8c0-0.7-0.3-1.3-0.7-1.8C61.6,50.2,60.9,50,60.2,50L60.2,50z M62.5,52.6 c0,0.6-0.2,1.1-0.6,1.5c-0.5,0.4-1,0.7-1.6,0.7c-0.6,0-1.1-0.2-1.6-0.7c-0.4-0.4-0.7-1-0.7-1.6s0.2-1.2,0.7-1.6 c0.4-0.4,1-0.6,1.6-0.6c0.6,0,1.2,0.2,1.6,0.7C62.2,51.4,62.5,52,62.5,52.6L62.5,52.6z M60.3,51h-1.1V54h0.5v-1.3h0.5l0.6,1.3h0.6 l-0.6-1.3c0.4-0.1,0.7-0.4,0.7-0.8C61.5,51.3,61.1,51,60.3,51L60.3,51z M60.2,51.4c0.5,0,0.8,0.1,0.8,0.5c0,0.4-0.2,0.5-0.7,0.5 h-0.5v-1H60.2L60.2,51.4z"></path> </svg> 