<?xml version="1.0" encoding="utf-8"?>
<!-- Generator: Adobe Illustrator 19.1.0, SVG Export Plug-In . SVG Version: 6.00 Build 0)  -->
<!DOCTYPE svg PUBLIC "-//W3C//DTD SVG 1.1//EN" "http://www.w3.org/Graphics/SVG/1.1/DTD/svg11.dtd">
<svg version="1.1" id="Layer_1" xmlns="http://www.w3.org/2000/svg" xmlns:xlink="http://www.w3.org/1999/xlink" x="0px" y="0px"
	 viewBox="0 0 402.1 177.1" enable-background="new 0 0 402.1 177.1" xml:space="preserve">
<g>
	<path fill="#231F20" d="M96.6,107l3.6-13.9h77.9l-3.6,13.9h-26.2l-12.2,48.5h-25.8l12.3-48.5H96.6z"/>
	<path fill="#231F20" d="M165.9,155.5l15.7-62.4h30l11.1,28.2c0.7,1.6,1.1,4.5,0.9,8.6c-0.1,1-0.1,2-0.3,2.9
		c0.7-2.3,1.6-4.5,2.9-6.7c1.5-2.4,2.4-3.8,3.3-4.8l25.6-28.3h30.9l-15.7,62.4h-24.9l7.9-31c0.2-0.8,0.5-1.6,1.9-4.6
		c1.1-2.5,2.3-5,3.7-7.5c-2.9,4.2-5.4,7.4-9.7,12l-28.1,31.1h-6.4l-12.8-31.1c-0.1-0.4-0.3-1.1-1.2-4.7c-0.6-2.9-1-5.1-1.4-7.5
		c-0.1,2.5-0.1,4.9-0.3,7.5c-0.2,3.4-0.3,4.1-0.5,4.7l-7.9,31.1H165.9z"/>
	<path fill="#231F20" d="M274.3,155.5L290,93.1h30l11.1,28.2c0.7,1.6,1.1,4.5,0.9,8.6c-0.1,1-0.1,2-0.3,2.9c0.7-2.3,1.6-4.5,2.9-6.7
		c1.5-2.4,2.4-3.8,3.3-4.8l25.6-28.3h30.9l-15.7,62.4h-24.9l7.9-31c0.2-0.8,0.5-1.6,1.9-4.6c1.1-2.5,2.3-5,3.7-7.5
		c-2.9,4.2-5.4,7.4-9.7,12l-28.1,31.1h-6.4l-12.8-31.1c-0.1-0.4-0.3-1.1-1.2-4.7c-0.6-2.9-1-5.1-1.4-7.5c-0.1,2.5-0.1,4.9-0.3,7.5
		c-0.2,3.4-0.3,4.1-0.5,4.7l-7.9,31.1H274.3z"/>
</g>
<polygon fill="#E31837" points="97.2,48.5 99.8,87.5 127.5,87.5 166.8,65.5 105.5,65.5 101.5,4.8 65.5,65.8 7,65.8 32.5,87.5 
	74.8,87.5 "/>
<polygon fill="#808080" points="47.2,98.8 56.8,118.5 42,143.9 6.2,170.8 "/>
</svg>
